<svg width="21" height="21" viewBox="0 0 21 21" fill="none" xmlns="http://www.w3.org/2000/svg">
<path d="M13.8679 7.25337C13.5233 7.25337 13.2375 6.96761 13.2375 6.62301V5.46315C13.2375 4.58065 12.8593 3.72337 12.2037 3.12663C11.5397 2.52149 10.6825 2.24413 9.77474 2.32818C8.26188 2.47106 6.93393 4.01753 6.93393 5.63125V6.44651C6.93393 6.79111 6.64817 7.07687 6.30357 7.07687C5.95898 7.07687 5.67322 6.79111 5.67322 6.44651V5.62284C5.67322 3.36196 7.49705 1.27758 9.65707 1.06746C10.9178 0.949796 12.1281 1.34482 13.0526 2.1937C13.9687 3.02577 14.4982 4.21925 14.4982 5.46315V6.62301C14.4982 6.96761 14.2125 7.25337 13.8679 7.25337Z" fill="white" fill-opacity="0.7"/>
<path d="M12.607 19.1208H7.56413C3.68113 19.1208 2.95832 17.3137 2.77342 15.5571L2.14306 10.5227C2.05061 9.61498 2.01699 8.31224 2.89949 7.33729C3.65592 6.49681 4.90823 6.09338 6.72366 6.09338H13.4475C15.2713 6.09338 16.5236 6.50522 17.2716 7.33729C18.1457 8.31224 18.1205 9.61498 18.0281 10.5059L17.3977 15.5571C17.2128 17.3137 16.49 19.1208 12.607 19.1208ZM6.72366 7.3541C5.30325 7.3541 4.3283 7.63146 3.83242 8.18617C3.42059 8.64003 3.28611 9.33762 3.39537 10.3798L4.02573 15.4143C4.16861 16.759 4.53842 17.8685 7.56413 17.8685H12.607C15.6327 17.8685 16.0025 16.7674 16.1454 15.4311L16.7758 10.3798C16.885 9.35443 16.7505 8.65684 16.3387 8.19457C15.8428 7.63146 14.8679 7.3541 13.4475 7.3541H6.72366Z" fill="white" fill-opacity="0.7"/>
<path d="M12.9601 11.0522C12.4894 11.0522 12.1112 10.674 12.1112 10.2118C12.1112 9.74949 12.4894 9.37128 12.9517 9.37128C13.414 9.37128 13.7922 9.74949 13.7922 10.2118C13.7922 10.674 13.4224 11.0522 12.9601 11.0522Z" fill="white" fill-opacity="0.7"/>
<path d="M7.07661 11.0522C6.60594 11.0522 6.22773 10.674 6.22773 10.2118C6.22773 9.74949 6.60594 9.37128 7.06821 9.37128C7.53047 9.37128 7.90868 9.74949 7.90868 10.2118C7.90868 10.674 7.53887 11.0522 7.07661 11.0522Z" fill="white" fill-opacity="0.7"/>
</svg>
