<svg width="57" height="42" viewBox="0 0 57 42" fill="none" xmlns="http://www.w3.org/2000/svg">
<path d="M32.0221 7.25337C31.6775 7.25337 31.3918 6.96761 31.3918 6.62301V5.46315C31.3918 4.58065 31.0136 3.72337 30.358 3.12663C29.694 2.52149 28.8367 2.24413 27.929 2.32818C26.4162 2.47106 25.0882 4.01753 25.0882 5.63125V6.44651C25.0882 6.79111 24.8025 7.07687 24.4579 7.07687C24.1133 7.07687 23.8275 6.79111 23.8275 6.44651V5.62284C23.8275 3.36196 25.6513 1.27758 27.8114 1.06746C29.0721 0.949796 30.2824 1.34482 31.2069 2.1937C32.123 3.02577 32.6525 4.21925 32.6525 5.46315V6.62301C32.6525 6.96761 32.3667 7.25337 32.0221 7.25337Z" fill="white" fill-opacity="0.7"/>
<path d="M30.7613 19.1208H25.7184C21.8354 19.1208 21.1126 17.3137 20.9277 15.5571L20.2973 10.5227C20.2049 9.61498 20.1713 8.31224 21.0538 7.33729C21.8102 6.49681 23.0625 6.09338 24.8779 6.09338H31.6017C33.4256 6.09338 34.6779 6.50522 35.4259 7.33729C36.3 8.31224 36.2748 9.61498 36.1823 10.5059L35.552 15.5571C35.3671 17.3137 34.6443 19.1208 30.7613 19.1208ZM24.8779 7.3541C23.4575 7.3541 22.4826 7.63146 21.9867 8.18617C21.5749 8.64003 21.4404 9.33762 21.5497 10.3798L22.18 15.4143C22.3229 16.759 22.6927 17.8685 25.7184 17.8685H30.7613C33.787 17.8685 34.1568 16.7674 34.2997 15.4311L34.93 10.3798C35.0393 9.35443 34.9048 8.65684 34.493 8.19457C33.9971 7.63146 33.0222 7.3541 31.6017 7.3541H24.8779Z" fill="white" fill-opacity="0.7"/>
<path d="M31.1144 11.0522C30.6437 11.0522 30.2655 10.674 30.2655 10.2118C30.2655 9.74949 30.6437 9.37128 31.106 9.37128C31.5682 9.37128 31.9465 9.74949 31.9465 10.2118C31.9465 10.674 31.5767 11.0522 31.1144 11.0522Z" fill="white" fill-opacity="0.7"/>
<path d="M25.2309 11.0522C24.7602 11.0522 24.382 10.674 24.382 10.2118C24.382 9.74949 24.7602 9.37128 25.2225 9.37128C25.6847 9.37128 26.063 9.74949 26.063 10.2118C26.063 10.674 25.6932 11.0522 25.2309 11.0522Z" fill="white" fill-opacity="0.7"/>
<path d="M21.9465 30.3893V30.7833C21.9465 31.325 21.8759 31.8109 21.7347 32.241C21.5935 32.6711 21.3916 33.0371 21.129 33.3392C20.8696 33.6412 20.5577 33.8727 20.1933 34.0336C19.8289 34.1911 19.425 34.2699 18.9818 34.2699C18.5419 34.2699 18.1397 34.1911 17.7753 34.0336C17.4141 33.8727 17.1006 33.6412 16.8347 33.3392C16.5687 33.0371 16.3619 32.6711 16.2142 32.241C16.0697 31.8109 15.9975 31.325 15.9975 30.7833V30.3893C15.9975 29.8476 16.0697 29.3633 16.2142 28.9365C16.3586 28.5064 16.5622 28.1404 16.8248 27.8383C17.0908 27.533 17.4043 27.3015 17.7654 27.144C18.1299 26.9831 18.532 26.9026 18.972 26.9026C19.4152 26.9026 19.819 26.9831 20.1834 27.144C20.5479 27.3015 20.8614 27.533 21.1241 27.8383C21.3867 28.1404 21.5886 28.5064 21.7298 28.9365C21.8742 29.3633 21.9465 29.8476 21.9465 30.3893ZM20.7104 30.7833V30.3795C20.7104 29.9789 20.671 29.626 20.5922 29.3207C20.5167 29.012 20.4034 28.7543 20.2524 28.5475C20.1046 28.3374 19.9224 28.1798 19.7057 28.0747C19.4891 27.9664 19.2445 27.9122 18.972 27.9122C18.6995 27.9122 18.4565 27.9664 18.2431 28.0747C18.0297 28.1798 17.8475 28.3374 17.6965 28.5475C17.5487 28.7543 17.4355 29.012 17.3567 29.3207C17.2779 29.626 17.2385 29.9789 17.2385 30.3795V30.7833C17.2385 31.1838 17.2779 31.5384 17.3567 31.847C17.4355 32.1556 17.5504 32.4166 17.7014 32.63C17.8557 32.8401 18.0396 32.9994 18.253 33.1077C18.4664 33.2128 18.7093 33.2653 18.9818 33.2653C19.2576 33.2653 19.5022 33.2128 19.7156 33.1077C19.929 32.9994 20.1096 32.8401 20.2573 32.63C20.4051 32.4166 20.5167 32.1556 20.5922 31.847C20.671 31.5384 20.7104 31.1838 20.7104 30.7833ZM24.357 29.8574V34.1714H23.1702V28.843H24.3028L24.357 29.8574ZM25.9871 28.8085L25.9772 29.9116C25.905 29.8985 25.8262 29.8886 25.7408 29.8821C25.6588 29.8755 25.5767 29.8722 25.4946 29.8722C25.291 29.8722 25.1121 29.9018 24.9578 29.9609C24.8035 30.0167 24.6738 30.0987 24.5688 30.2071C24.467 30.3122 24.3882 30.4402 24.3324 30.5912C24.2766 30.7422 24.2437 30.9113 24.2339 31.0985L23.963 31.1182C23.963 30.7833 23.9959 30.473 24.0615 30.1874C24.1272 29.9018 24.2257 29.6506 24.357 29.4339C24.4916 29.2172 24.659 29.0482 24.8593 28.9267C25.0629 28.8052 25.2976 28.7445 25.5635 28.7445C25.6358 28.7445 25.7129 28.751 25.795 28.7642C25.8804 28.7773 25.9444 28.7921 25.9871 28.8085ZM29.9833 33.0683V26.6072H31.1751V34.1714H30.0966L29.9833 33.0683ZM26.5164 31.5663V31.4629C26.5164 31.0591 26.564 30.6914 26.6592 30.3598C26.7544 30.0249 26.8923 29.7376 27.0729 29.4979C27.2534 29.255 27.4734 29.0695 27.7328 28.9415C27.9921 28.8101 28.2843 28.7445 28.6093 28.7445C28.9311 28.7445 29.2134 28.8068 29.4564 28.9316C29.6993 29.0564 29.9062 29.2353 30.0769 29.4684C30.2476 29.6982 30.3839 29.974 30.4856 30.2957C30.5874 30.6142 30.6596 30.9688 30.7023 31.3595V31.6894C30.6596 32.0703 30.5874 32.4183 30.4856 32.7334C30.3839 33.0486 30.2476 33.3211 30.0769 33.5509C29.9062 33.7808 29.6977 33.958 29.4515 34.0828C29.2085 34.2076 28.9245 34.2699 28.5995 34.2699C28.2778 34.2699 27.9872 34.2026 27.7278 34.068C27.4717 33.9334 27.2534 33.7446 27.0729 33.5017C26.8923 33.2587 26.7544 32.9731 26.6592 32.6448C26.564 32.3132 26.5164 31.9537 26.5164 31.5663ZM27.7032 31.4629V31.5663C27.7032 31.8093 27.7245 32.0358 27.7672 32.2459C27.8132 32.456 27.8838 32.6415 27.979 32.8024C28.0742 32.96 28.1973 33.0847 28.3483 33.1767C28.5026 33.2653 28.6865 33.3096 28.8999 33.3096C29.1691 33.3096 29.3907 33.2505 29.5647 33.1323C29.7387 33.0142 29.875 32.8549 29.9735 32.6547C30.0753 32.4511 30.1442 32.2246 30.1803 31.975V31.0837C30.1606 30.89 30.1196 30.7094 30.0572 30.542C29.9981 30.3745 29.9177 30.2284 29.8159 30.1037C29.7141 29.9756 29.5877 29.8771 29.4367 29.8082C29.289 29.736 29.1133 29.6999 28.9098 29.6999C28.6931 29.6999 28.5092 29.7458 28.3582 29.8377C28.2072 29.9297 28.0824 30.0561 27.9839 30.2169C27.8887 30.3778 27.8181 30.565 27.7722 30.7784C27.7262 30.9918 27.7032 31.2199 27.7032 31.4629ZM34.866 34.2699C34.4721 34.2699 34.1158 34.2059 33.7974 34.0779C33.4822 33.9466 33.213 33.7643 32.9897 33.5312C32.7698 33.2981 32.6007 33.024 32.4825 32.7088C32.3643 32.3936 32.3052 32.0538 32.3052 31.6894V31.4924C32.3052 31.0755 32.3659 30.6979 32.4874 30.3598C32.6089 30.0216 32.778 29.7327 32.9947 29.493C33.2113 29.2501 33.4674 29.0646 33.7629 28.9365C34.0584 28.8085 34.3785 28.7445 34.7232 28.7445C35.1041 28.7445 35.4373 28.8085 35.7229 28.9365C36.0086 29.0646 36.2449 29.2451 36.4321 29.4782C36.6225 29.7081 36.7637 29.9822 36.8556 30.3007C36.9508 30.6191 36.9984 30.9704 36.9984 31.3545V31.8618H32.8814V31.0098H35.8263V30.9162C35.8198 30.7028 35.7771 30.5026 35.6983 30.3154C35.6228 30.1283 35.5062 29.9773 35.3487 29.8624C35.1911 29.7475 34.9809 29.69 34.7183 29.69C34.5213 29.69 34.3457 29.7327 34.1914 29.818C34.0403 29.9001 33.9139 30.02 33.8122 30.1775C33.7104 30.3351 33.6316 30.5256 33.5758 30.7488C33.5232 30.9688 33.497 31.2166 33.497 31.4924V31.6894C33.497 31.9225 33.5282 32.1392 33.5905 32.3395C33.6562 32.5365 33.7514 32.7088 33.8762 32.8566C34.0009 33.0043 34.152 33.1209 34.3292 33.2062C34.5065 33.2883 34.7084 33.3293 34.935 33.3293C35.2206 33.3293 35.4751 33.2719 35.6983 33.157C35.9216 33.0421 36.1153 32.8795 36.2794 32.6694L36.9048 33.2752C36.7899 33.4426 36.6406 33.6035 36.4567 33.7578C36.2728 33.9088 36.048 34.0319 35.782 34.1271C35.5194 34.2223 35.214 34.2699 34.866 34.2699ZM39.2169 29.8574V34.1714H38.03V28.843H39.1627L39.2169 29.8574ZM40.8469 28.8085L40.8371 29.9116C40.7649 29.8985 40.6861 29.8886 40.6007 29.8821C40.5186 29.8755 40.4366 29.8722 40.3545 29.8722C40.1509 29.8722 39.972 29.9018 39.8177 29.9609C39.6634 30.0167 39.5337 30.0987 39.4286 30.2071C39.3269 30.3122 39.2481 30.4402 39.1923 30.5912C39.1364 30.7422 39.1036 30.9113 39.0938 31.0985L38.8229 31.1182C38.8229 30.7833 38.8557 30.473 38.9214 30.1874C38.9871 29.9018 39.0856 29.6506 39.2169 29.4339C39.3515 29.2172 39.5189 29.0482 39.7192 28.9267C39.9227 28.8052 40.1575 28.7445 40.4234 28.7445C40.4957 28.7445 40.5728 28.751 40.6549 28.7642C40.7402 28.7773 40.8043 28.7921 40.8469 28.8085Z" fill="white" fill-opacity="0.7"/>
</svg>
