<svg width="11" height="11" viewBox="0 0 11 11" fill="none" xmlns="http://www.w3.org/2000/svg">
<g clip-path="url(#clip0_1_306)">
<path d="M0.994559 0.439726C1.02425 0.439448 1.02425 0.439448 1.05455 0.439165C1.11955 0.43868 1.18453 0.438822 1.24953 0.439018C1.29501 0.438905 1.34049 0.43877 1.38597 0.438614C1.48115 0.438391 1.57631 0.438488 1.67148 0.438802C1.79304 0.439171 1.91458 0.438667 2.03613 0.437911C2.13003 0.437438 2.22391 0.43747 2.31781 0.437648C2.3626 0.437666 2.4074 0.43752 2.4522 0.437202C2.9163 0.434416 2.9163 0.434416 3.06647 0.558608C3.17323 0.673114 3.19859 0.776549 3.1982 0.928656C3.19824 0.944652 3.19829 0.960648 3.19833 0.977129C3.19845 1.03116 3.19842 1.08518 3.19839 1.13921C3.19845 1.17817 3.19851 1.21712 3.19859 1.25608C3.19876 1.36347 3.1988 1.47085 3.19881 1.57824C3.19885 1.69392 3.19902 1.80961 3.19916 1.92529C3.19945 2.17839 3.19958 2.4315 3.19968 2.6846C3.19973 2.84255 3.19983 3.0005 3.19992 3.15846C3.20018 3.59553 3.20041 4.0326 3.20048 4.46967C3.20049 4.51165 3.20049 4.51165 3.20049 4.55448C3.2005 4.58253 3.2005 4.61059 3.20051 4.63949C3.20052 4.69634 3.20053 4.75319 3.20054 4.81004C3.20054 4.85234 3.20054 4.85234 3.20055 4.8955C3.20064 5.35262 3.20101 5.80975 3.20151 6.26687C3.20202 6.73587 3.20229 7.20487 3.20231 7.67387C3.20233 7.93732 3.20246 8.20078 3.20285 8.46424C3.20318 8.68854 3.20329 8.91285 3.20311 9.13715C3.20303 9.25165 3.20305 9.36614 3.20335 9.48064C3.20362 9.5854 3.2036 9.69015 3.20333 9.79491C3.20329 9.83287 3.20336 9.87082 3.20355 9.90877C3.20378 9.96027 3.20362 10.0118 3.20337 10.0633C3.20353 10.0781 3.20369 10.0929 3.20386 10.1081C3.20249 10.234 3.16354 10.3163 3.08392 10.4119C2.94645 10.528 2.82393 10.5617 2.64619 10.5603C2.62639 10.5605 2.6066 10.5607 2.5862 10.5609C2.5212 10.5613 2.45622 10.5612 2.39122 10.561C2.34574 10.5611 2.30026 10.5613 2.25478 10.5614C2.1596 10.5616 2.06444 10.5615 1.96927 10.5612C1.84771 10.5609 1.72617 10.5614 1.60461 10.5621C1.51072 10.5626 1.41683 10.5626 1.32294 10.5624C1.27815 10.5624 1.23335 10.5625 1.18855 10.5628C0.724451 10.5656 0.724451 10.5656 0.574281 10.4414C0.467517 10.3269 0.442165 10.2235 0.442551 10.0714C0.442507 10.0554 0.442463 10.0394 0.442418 10.0229C0.442295 9.96887 0.442327 9.91484 0.442358 9.86082C0.442302 9.82186 0.442237 9.7829 0.442164 9.74395C0.44199 9.63656 0.441952 9.52917 0.441937 9.42179C0.441897 9.3061 0.441735 9.19042 0.44159 9.07474C0.441298 8.82163 0.441169 8.56853 0.441074 8.31542C0.441015 8.15747 0.440924 7.99952 0.440827 7.84157C0.440565 7.4045 0.440344 6.96743 0.440271 6.53036C0.440266 6.50237 0.440262 6.47439 0.440257 6.44555C0.440252 6.4175 0.440247 6.38944 0.440242 6.36054C0.440233 6.30369 0.440223 6.24684 0.440214 6.18998C0.440209 6.16178 0.440204 6.13358 0.440199 6.10453C0.440114 5.6474 0.439739 5.19028 0.439239 4.73315C0.43873 4.26416 0.438462 3.79516 0.438437 3.32616C0.438417 3.0627 0.438293 2.79925 0.437904 2.53579C0.437573 2.31149 0.437462 2.08718 0.43764 1.86288C0.437724 1.74838 0.437703 1.63389 0.437403 1.51939C0.43713 1.41463 0.437154 1.30987 0.437415 1.20511C0.437458 1.16716 0.43739 1.12921 0.437204 1.09126C0.436967 1.03975 0.437125 0.988268 0.437384 0.936767C0.437221 0.921958 0.437058 0.907148 0.43689 0.891891C0.438258 0.766071 0.477213 0.683684 0.556825 0.588149C0.694304 0.472056 0.816815 0.438366 0.994559 0.439726Z" fill="#34A853"/>
<path d="M4.62773 2.74435C4.64556 2.7442 4.66339 2.74405 4.68176 2.74389C4.70113 2.74394 4.72051 2.744 4.74047 2.74405C4.76103 2.74394 4.78158 2.74383 4.80275 2.74372C4.87072 2.74342 4.93868 2.74344 5.00665 2.74349C5.0539 2.74341 5.10116 2.74331 5.14841 2.74321C5.24749 2.74305 5.34657 2.74306 5.44565 2.74317C5.57256 2.74329 5.69946 2.74293 5.82637 2.74243C5.92399 2.74212 6.02159 2.7421 6.11921 2.74216C6.16599 2.74215 6.21278 2.74204 6.25956 2.74182C6.32503 2.74156 6.39048 2.7417 6.45595 2.74195C6.48489 2.74171 6.48489 2.74171 6.51441 2.74146C6.65285 2.74262 6.7413 2.77101 6.84977 2.8614C6.99136 3.02908 6.99916 3.17042 6.99765 3.38319C6.99775 3.41255 6.99788 3.4419 6.99805 3.47126C6.99841 3.55163 6.99824 3.63198 6.99797 3.71234C6.99777 3.79913 6.99808 3.88592 6.99831 3.97271C6.99869 4.1426 6.99861 4.31249 6.99836 4.48239C6.99817 4.62048 6.99814 4.75857 6.99824 4.89667C6.99825 4.91633 6.99826 4.93599 6.99827 4.95625C6.9983 4.9962 6.99833 5.03615 6.99836 5.0761C6.9986 5.45057 6.99832 5.82505 6.99786 6.19953C6.99748 6.52076 6.99754 6.84199 6.99794 7.16322C6.9984 7.53637 6.99858 7.90952 6.99832 8.28267C6.99829 8.32247 6.99826 8.36227 6.99824 8.40207C6.99822 8.43144 6.99822 8.43144 6.99819 8.4614C6.99812 8.59931 6.99825 8.73722 6.99845 8.87512C6.99869 9.04321 6.99862 9.2113 6.99817 9.37939C6.99794 9.46513 6.99785 9.55087 6.99814 9.63661C6.99839 9.71515 6.99825 9.79367 6.99779 9.87221C6.99765 9.91398 6.99793 9.95575 6.99823 9.99752C6.9967 10.168 6.97788 10.2876 6.86328 10.4204C6.85129 10.43 6.8393 10.4395 6.82695 10.4494C6.80904 10.4643 6.80904 10.4643 6.79077 10.4795C6.67687 10.5538 6.57415 10.5552 6.44221 10.555C6.42215 10.5552 6.40208 10.5553 6.38141 10.5555C6.31516 10.5559 6.24892 10.556 6.18267 10.556C6.13651 10.5561 6.09035 10.5563 6.04419 10.5564C5.94744 10.5567 5.8507 10.5568 5.75395 10.5567C5.6302 10.5567 5.50645 10.5573 5.3827 10.5581C5.28736 10.5585 5.19202 10.5586 5.09667 10.5586C5.05106 10.5587 5.00545 10.5588 4.95984 10.5592C4.89592 10.5596 4.83203 10.5595 4.76811 10.5592C4.74941 10.5595 4.73071 10.5597 4.71144 10.5599C4.55311 10.5583 4.44043 10.515 4.3267 10.4038C4.21015 10.2306 4.20594 10.0788 4.20692 9.87517C4.20683 9.84609 4.20671 9.81701 4.20657 9.78793C4.20626 9.70835 4.20635 9.62877 4.20651 9.54918C4.20661 9.46323 4.20634 9.37728 4.20612 9.29132C4.20575 9.12306 4.20574 8.95479 4.20585 8.78653C4.20594 8.64975 4.2059 8.51297 4.20579 8.37619C4.20577 8.35671 4.20576 8.33723 4.20574 8.31716C4.20571 8.27759 4.20567 8.23802 4.20564 8.19845C4.20535 7.82748 4.20546 7.45652 4.20571 7.08555C4.20592 6.74629 4.20565 6.40703 4.20513 6.06776C4.20461 5.71925 4.2044 5.37074 4.20454 5.02223C4.20462 4.82663 4.20457 4.63103 4.20419 4.43543C4.20388 4.26893 4.20386 4.10243 4.20424 3.93593C4.20442 3.85101 4.20447 3.7661 4.20414 3.68118C4.20384 3.60337 4.20394 3.52557 4.20436 3.44776C4.20448 3.40644 4.20418 3.36511 4.20386 3.32378C4.20527 3.15711 4.22021 3.00716 4.33942 2.88154C4.42618 2.80276 4.50749 2.74469 4.62773 2.74435Z" fill="#FF0000"/>
<path d="M8.42242 5.49675C8.44903 5.49647 8.44903 5.49647 8.47617 5.49619C8.49556 5.4961 8.51494 5.496 8.53492 5.49591C8.56564 5.49565 8.56564 5.49565 8.59698 5.49538C8.66485 5.49484 8.73273 5.49449 8.8006 5.49418C8.83539 5.49401 8.83539 5.49401 8.87088 5.49383C8.99367 5.49326 9.11645 5.49284 9.23924 5.49253C9.36593 5.49218 9.49261 5.49121 9.6193 5.49012C9.71682 5.48939 9.81434 5.48915 9.91186 5.48903C9.95855 5.48888 10.0052 5.48855 10.0519 5.48804C10.1174 5.48736 10.1828 5.48736 10.2483 5.48752C10.2771 5.48699 10.2771 5.48699 10.3064 5.48645C10.4566 5.48794 10.5577 5.53543 10.6667 5.63847C10.776 5.75964 10.7907 5.88518 10.79 6.04247C10.7901 6.05998 10.7902 6.07748 10.7903 6.09552C10.7906 6.154 10.7906 6.21247 10.7905 6.27095C10.7907 6.31296 10.7908 6.35496 10.791 6.39696C10.7914 6.51096 10.7915 6.62495 10.7915 6.73895C10.7915 6.81021 10.7916 6.88148 10.7917 6.95275C10.7921 7.20151 10.7923 7.45027 10.7923 7.69903C10.7922 7.93069 10.7927 8.16234 10.7934 8.39399C10.7939 8.59306 10.7942 8.79212 10.7941 8.99119C10.7941 9.11 10.7942 9.22881 10.7947 9.34763C10.7951 9.45943 10.7951 9.57122 10.7948 9.68303C10.7948 9.72396 10.7949 9.76489 10.7951 9.80582C10.7979 10.268 10.7979 10.268 10.6608 10.4182C10.5319 10.5391 10.4105 10.5553 10.2398 10.5551C10.2197 10.5553 10.1996 10.5554 10.179 10.5556C10.1127 10.556 10.0465 10.5561 9.98023 10.5561C9.93407 10.5562 9.88792 10.5564 9.84176 10.5565C9.74501 10.5568 9.64826 10.5569 9.55151 10.5568C9.42776 10.5568 9.30402 10.5574 9.18027 10.5582C9.08492 10.5586 8.98958 10.5587 8.89423 10.5587C8.84862 10.5588 8.80301 10.5589 8.7574 10.5593C8.69349 10.5597 8.62959 10.5596 8.56568 10.5593C8.54698 10.5596 8.52828 10.5598 8.50901 10.5601C8.36421 10.5586 8.25175 10.5208 8.14122 10.4254C8.13164 10.4134 8.12205 10.4014 8.11218 10.3891C8.10227 10.3772 8.09235 10.3652 8.08214 10.3529C8.01364 10.248 8.00654 10.1508 8.00693 10.0281C8.00681 10.0103 8.0067 9.99259 8.00659 9.9743C8.00626 9.91486 8.00625 9.85543 8.00623 9.79599C8.00607 9.75336 8.00589 9.71072 8.00569 9.66808C8.00522 9.55227 8.00503 9.43645 8.00492 9.32064C8.00484 9.24824 8.00471 9.17585 8.00456 9.10346C8.00403 8.8508 8.00375 8.59813 8.00367 8.34547C8.0036 8.11014 8.00295 7.87482 8.00205 7.63949C8.00131 7.43732 8.00098 7.23516 8.00096 7.03299C8.00094 6.9123 8.00076 6.79162 8.00015 6.67094C7.99958 6.55735 7.99954 6.44378 7.99988 6.33019C7.99992 6.2886 7.99978 6.24702 7.99943 6.20543C7.99618 5.78499 7.99618 5.78499 8.12024 5.62896C8.20976 5.54511 8.29908 5.49771 8.42242 5.49675Z" fill="#34A853"/>
<path d="M8.42237 5.49675C8.44898 5.49647 8.44898 5.49647 8.47612 5.49619C8.4955 5.4961 8.51489 5.496 8.53487 5.49591C8.56558 5.49565 8.56558 5.49565 8.59692 5.49538C8.6648 5.49484 8.73267 5.49449 8.80055 5.49418C8.83534 5.49401 8.83534 5.49401 8.87083 5.49383C8.99361 5.49326 9.1164 5.49284 9.23918 5.49253C9.36588 5.49218 9.49256 5.49121 9.61924 5.49012C9.71676 5.48939 9.81428 5.48915 9.91181 5.48903C9.9585 5.48888 10.0052 5.48855 10.0519 5.48804C10.1173 5.48736 10.1828 5.48736 10.2482 5.48752C10.277 5.48699 10.277 5.48699 10.3063 5.48645C10.4566 5.48794 10.5576 5.53543 10.6667 5.63847C10.7759 5.75964 10.7906 5.88518 10.79 6.04247C10.7901 6.05998 10.7902 6.07748 10.7903 6.09552C10.7906 6.154 10.7905 6.21247 10.7905 6.27095C10.7906 6.31296 10.7908 6.35496 10.7909 6.39696C10.7913 6.51096 10.7914 6.62495 10.7914 6.73895C10.7915 6.81021 10.7916 6.88148 10.7917 6.95275C10.7921 7.20151 10.7922 7.45027 10.7922 7.69903C10.7922 7.93069 10.7926 8.16234 10.7933 8.39399C10.7939 8.59306 10.7941 8.79212 10.7941 8.99119C10.7941 9.11 10.7942 9.22881 10.7946 9.34763C10.7951 9.45943 10.7951 9.57122 10.7948 9.68303C10.7947 9.72396 10.7948 9.76489 10.7951 9.80582C10.7978 10.268 10.7978 10.268 10.6607 10.4182C10.5319 10.5391 10.4105 10.5553 10.2397 10.5551C10.2197 10.5553 10.1996 10.5554 10.1789 10.5556C10.1127 10.556 10.0464 10.5561 9.98018 10.5561C9.93402 10.5562 9.88786 10.5564 9.8417 10.5565C9.74496 10.5568 9.64821 10.5569 9.55146 10.5568C9.42771 10.5568 9.30397 10.5574 9.18022 10.5582C9.08487 10.5586 8.98953 10.5587 8.89418 10.5587C8.84857 10.5588 8.80296 10.5589 8.75735 10.5593C8.69343 10.5597 8.62954 10.5596 8.56562 10.5593C8.54692 10.5596 8.52822 10.5598 8.50896 10.5601C8.36416 10.5586 8.2517 10.5208 8.14117 10.4254C8.13158 10.4134 8.122 10.4014 8.11213 10.3891C8.10221 10.3772 8.0923 10.3652 8.08208 10.3529C8.01359 10.248 8.00649 10.1508 8.00687 10.0281C8.00676 10.0103 8.00665 9.99259 8.00653 9.9743C8.00621 9.91486 8.00619 9.85543 8.00618 9.79599C8.00602 9.75336 8.00584 9.71072 8.00564 9.66808C8.00517 9.55227 8.00498 9.43645 8.00487 9.32064C8.00479 9.24824 8.00466 9.17585 8.0045 9.10346C8.00398 8.8508 8.0037 8.59813 8.00362 8.34547C8.00354 8.11014 8.0029 7.87482 8.002 7.63949C8.00125 7.43732 8.00092 7.23516 8.00091 7.03299C8.00089 6.9123 8.0007 6.79162 8.00009 6.67094C7.99953 6.55735 7.99948 6.44378 7.99983 6.33019C7.99987 6.2886 7.99972 6.24702 7.99938 6.20543C7.99612 5.78499 7.99612 5.78499 8.12018 5.62896C8.2097 5.54511 8.29902 5.49771 8.42237 5.49675Z" fill="#34A853"/>
</g>
<defs>
<clipPath id="clip0_1_306">
<rect width="11" height="11" fill="white"/>
</clipPath>
</defs>
</svg>
