<svg width="20" height="20" viewBox="0 0 20 20" fill="none" xmlns="http://www.w3.org/2000/svg">
<path d="M10.4932 0.0936817C10.5557 0.130761 10.5557 0.130761 10.625 0.184014C10.6804 0.225287 10.6804 0.225287 10.737 0.267393C10.8685 0.377689 10.9405 0.50681 11.0118 0.661004C11.0249 0.688337 11.0381 0.715671 11.0516 0.743834C11.1997 1.05597 11.3339 1.37414 11.4673 1.6928C11.4954 1.75955 11.5236 1.82628 11.5517 1.89301C11.5972 2.00067 11.6426 2.10834 11.6879 2.21604C11.8687 2.64517 12.0515 3.07344 12.2341 3.50177C12.3299 3.72644 12.4257 3.95115 12.5214 4.17587C12.5488 4.24029 12.5488 4.24029 12.5768 4.30601C12.8122 4.85884 13.0469 5.41198 13.2813 5.96526C13.5679 5.99277 13.8546 6.02019 14.1413 6.04758C14.2483 6.0578 14.3553 6.06806 14.4623 6.07833C15.15 6.14436 15.8379 6.20861 16.526 6.27031C16.7552 6.2909 16.9844 6.31172 17.2136 6.33252C17.4393 6.35297 17.6651 6.37305 17.8908 6.39287C18.0332 6.40546 18.1755 6.4184 18.3179 6.43144C18.3843 6.43745 18.4507 6.44331 18.5172 6.44901C19.4204 6.52671 19.4204 6.52671 19.7656 6.8637C20.0184 7.19486 20.0285 7.51584 20 7.91839C19.9408 8.13731 19.8149 8.27524 19.6484 8.4262C19.6077 8.46846 19.567 8.51078 19.5264 8.55315C19.415 8.66478 19.2977 8.76444 19.1748 8.86321C19.0072 8.99798 18.8482 9.13861 18.6914 9.28558C18.5063 9.45896 18.3156 9.62118 18.1177 9.77996C17.9695 9.90347 17.8296 10.035 17.6888 10.1669C17.5589 10.2878 17.4263 10.4026 17.2876 10.5136C17.1167 10.6507 16.9562 10.7957 16.7969 10.9457C16.6052 11.1262 16.4087 11.2958 16.203 11.4604C16.0518 11.5861 15.9084 11.7194 15.7652 11.854C15.7353 11.8821 15.7353 11.8821 15.7048 11.9107C15.6854 11.9293 15.6661 11.9478 15.6461 11.9669C15.5859 12.02 15.5859 12.02 15.5174 12.065C15.4403 12.1135 15.4403 12.1135 15.3516 12.2153C15.364 12.5019 15.4332 12.7778 15.4978 13.0566C15.5087 13.1044 15.5197 13.1523 15.5309 13.2016C15.5607 13.332 15.5907 13.4623 15.6208 13.5927C15.6523 13.7296 15.6836 13.8666 15.715 14.0036C15.7743 14.2631 15.8339 14.5224 15.8936 14.7818C15.9678 15.1047 16.0418 15.4276 16.1158 15.7506C16.1914 16.0806 16.2671 16.4106 16.3429 16.7406C16.3545 16.7914 16.3662 16.8422 16.3779 16.893C16.3993 16.9863 16.4208 17.0797 16.4423 17.1731C16.4694 17.2913 16.4965 17.4095 16.5234 17.5278C16.5313 17.5621 16.5392 17.5964 16.5473 17.6318C16.5543 17.6631 16.5614 17.6943 16.5687 17.7265C16.5748 17.7532 16.5809 17.78 16.5871 17.8076C16.6669 18.204 16.5788 18.5365 16.3599 18.8681C16.1248 19.0927 15.8661 19.2107 15.542 19.2197C15.5081 19.2211 15.4741 19.2226 15.4392 19.2241C15.0566 19.1738 14.7243 18.9451 14.3994 18.7509C14.3497 18.7215 14.2999 18.692 14.2502 18.6626C13.8606 18.4318 13.4735 18.1968 13.0868 17.9611C12.7131 17.7333 12.3368 17.5102 11.9596 17.2882C11.7301 17.1529 11.5009 17.017 11.2717 16.881C11.2176 16.8489 11.1634 16.8168 11.1093 16.7848C11.0576 16.7542 11.006 16.7236 10.9545 16.693C10.9043 16.6633 10.8542 16.6336 10.804 16.6041C10.682 16.5319 10.5618 16.458 10.4436 16.3798C10.4209 16.365 10.3982 16.3502 10.3748 16.335C10.3132 16.2947 10.252 16.2536 10.1909 16.2125C10.051 16.1481 9.98987 16.1552 9.84375 16.1996C9.734 16.2524 9.734 16.2524 9.62555 16.3226C9.58341 16.3486 9.54126 16.3746 9.49784 16.4014C9.46435 16.4225 9.46435 16.4225 9.43018 16.4439C9.3339 16.5043 9.2371 16.5639 9.14032 16.6235C9.089 16.6551 9.0377 16.6868 8.98642 16.7185C8.72742 16.8784 8.46575 17.0336 8.20367 17.1883C7.78262 17.437 7.3632 17.6881 6.9458 17.9428C6.51605 18.205 6.08311 18.4613 5.64801 18.7145C5.3683 18.8775 5.3683 18.8775 5.09278 19.0474C4.82045 19.2166 4.53348 19.2505 4.21875 19.2075C3.90428 19.104 3.6744 18.9536 3.51563 18.6606C3.50248 18.6365 3.48934 18.6124 3.4758 18.5876C3.31137 18.2257 3.39955 17.8049 3.48795 17.4341C3.49748 17.3923 3.50701 17.3505 3.51683 17.3074C3.5482 17.1703 3.58028 17.0334 3.61237 16.8965C3.63462 16.7999 3.65683 16.7032 3.67899 16.6066C3.73147 16.3783 3.78438 16.15 3.83753 15.9219C3.90292 15.641 3.96769 15.36 4.03244 15.079C4.099 14.7901 4.1656 14.5013 4.23266 14.2126C4.28317 13.9952 4.33329 13.7776 4.38321 13.56C4.40467 13.4669 4.42631 13.3739 4.44808 13.2809C4.48209 13.1356 4.51559 12.9902 4.54901 12.8448C4.55957 12.8002 4.57013 12.7556 4.58101 12.7097C4.59045 12.6682 4.59988 12.6267 4.6096 12.584C4.61806 12.5476 4.62653 12.5112 4.63525 12.4737C4.64968 12.3619 4.64178 12.2839 4.60938 12.1762C4.5264 12.0799 4.5264 12.0799 4.41895 11.9907C4.39965 11.9737 4.38036 11.9568 4.36048 11.9394C4.19901 11.7988 4.03186 11.6652 3.86521 11.5309C3.70665 11.3976 3.55682 11.2557 3.40603 11.1137C3.23743 10.9558 3.06231 10.8092 2.88193 10.6648C2.75686 10.5609 2.63819 10.4514 2.51953 10.3403C2.36735 10.1977 2.21354 10.0607 2.05078 9.93011C1.83967 9.76061 1.6426 9.57839 1.4447 9.39391C1.26311 9.22464 1.07554 9.0628 0.88608 8.90243C0.0283916 8.17525 0.0283916 8.17525 -0.0160201 7.77343C-0.0332238 7.45006 -0.00606277 7.1684 0.195314 6.90276C0.39901 6.68059 0.636495 6.54758 0.937893 6.51161C0.962374 6.50866 0.986856 6.50571 1.01208 6.50267C1.46424 6.45034 1.91817 6.41259 2.37149 6.37179C2.51237 6.35908 2.65324 6.34622 2.79411 6.33337C3.0603 6.30911 3.3265 6.28498 3.5927 6.26089C4.06981 6.21771 4.5469 6.17437 5.02399 6.13093C5.19106 6.11573 5.35813 6.10059 5.52521 6.08549C5.60407 6.07836 5.68294 6.07121 5.7618 6.06404C5.85758 6.05534 5.95335 6.04668 6.04914 6.03807C6.13203 6.03051 6.21491 6.0227 6.29775 6.01456C6.36596 6.00813 6.43428 6.00264 6.50267 5.99853C6.66151 5.98811 6.66151 5.98811 6.78413 5.89521C6.79657 5.86442 6.80901 5.83363 6.82183 5.80191C6.8368 5.76666 6.85177 5.73141 6.8672 5.69509C6.88226 5.6561 6.89732 5.6171 6.91284 5.57693C6.93828 5.51568 6.93828 5.51568 6.96422 5.4532C7.02028 5.31753 7.07456 5.18122 7.12891 5.04485C7.16788 4.94979 7.20698 4.85479 7.24622 4.75984C7.30758 4.61127 7.36881 4.46265 7.42946 4.31379C7.5722 3.96348 7.71851 3.61488 7.86789 3.26736C7.8782 3.24338 7.8885 3.21941 7.89912 3.19471C7.9504 3.07547 8.00176 2.95626 8.05315 2.83707C8.12928 2.6604 8.20511 2.48361 8.28087 2.30678C8.31697 2.22259 8.35314 2.13843 8.38937 2.0543C8.47626 1.85242 8.56249 1.65031 8.64684 1.44737C8.68828 1.34778 8.73005 1.24834 8.77184 1.1489C8.80109 1.07891 8.82988 1.00874 8.85866 0.938564C8.9852 0.638001 9.12404 0.31417 9.42139 0.147393C9.44692 0.132538 9.47245 0.117684 9.49875 0.102379C9.76414 -0.0294685 10.2256 -0.0356727 10.4932 0.0936817ZM9.96094 1.66839C9.95177 1.68996 9.94259 1.71153 9.93314 1.73375C9.55795 2.61579 9.18276 3.49783 8.80509 4.37881C8.79462 4.40321 8.78416 4.42762 8.77338 4.45276C8.66243 4.71155 8.55141 4.9703 8.44032 5.22903C8.42172 5.27238 8.40312 5.31573 8.38396 5.3604C8.34784 5.44456 8.31169 5.5287 8.27551 5.61284C8.19379 5.8032 8.11287 5.9938 8.03411 6.1854C8.02004 6.21947 8.00597 6.25355 7.99147 6.28865C7.96577 6.35109 7.9403 6.41362 7.91511 6.47627C7.7749 6.81653 7.59305 7.03155 7.25464 7.17886C7.05644 7.2468 6.85238 7.25975 6.64467 7.27774C6.59672 7.28237 6.54877 7.287 6.49937 7.29178C6.35119 7.30593 6.20296 7.31925 6.05469 7.33245C5.96731 7.34058 5.87994 7.34874 5.79257 7.35694C5.57779 7.37689 5.36294 7.39599 5.14806 7.4148C5.00877 7.42701 4.8695 7.43939 4.73023 7.45181C4.33529 7.48703 3.94034 7.52211 3.54534 7.55673C3.30142 7.57812 3.05752 7.59982 2.81364 7.62172C2.72133 7.62995 2.629 7.63806 2.53667 7.64606C2.40863 7.65715 2.28063 7.66863 2.15264 7.68021C2.11474 7.6834 2.07684 7.68658 2.03779 7.68987C1.98561 7.69471 1.98561 7.69471 1.93237 7.69964C1.90225 7.7023 1.87213 7.70495 1.84109 7.70769C1.75012 7.7245 1.68198 7.75622 1.60156 7.8012C1.95452 8.13296 1.95452 8.13296 2.32422 8.44573C2.5102 8.59495 2.68409 8.75391 2.85797 8.91677C2.98872 9.03853 3.12227 9.15416 3.26172 9.26605C3.44773 9.41529 3.62166 9.57428 3.79556 9.73717C3.92545 9.85815 4.0581 9.97293 4.19678 10.0839C4.36768 10.221 4.52813 10.366 4.6875 10.516C4.9441 10.7576 5.21376 10.9794 5.48844 11.2001C5.7321 11.4044 5.90977 11.6251 5.97656 11.9418C6.00286 12.2651 5.94701 12.5609 5.8732 12.8743C5.86221 12.9226 5.85122 12.971 5.8399 13.0208C5.81005 13.1521 5.77962 13.2833 5.7491 13.4144C5.71712 13.5524 5.6857 13.6904 5.65422 13.8285C5.59459 14.0896 5.53451 14.3507 5.47424 14.6117C5.36632 15.0791 5.25918 15.5468 5.15219 16.0144C5.11469 16.1783 5.07699 16.3421 5.03913 16.5058C5.02126 16.5832 5.00345 16.6606 4.98567 16.738C4.96407 16.8321 4.94235 16.9261 4.9205 17.0201C4.86987 17.2413 4.82759 17.4582 4.80469 17.684C5.15528 17.4974 5.49648 17.2966 5.8374 17.0932C5.89363 17.0597 5.94986 17.0263 6.00609 16.9928C6.32578 16.8025 6.64504 16.6114 6.96385 16.4196C7.16108 16.3011 7.35872 16.1833 7.55661 16.0658C7.58262 16.0504 7.60862 16.035 7.63541 16.019C7.77036 15.939 7.90535 15.859 8.04041 15.7791C8.29447 15.6287 8.54784 15.4774 8.79929 15.3227C8.86499 15.2825 8.86499 15.2825 8.93201 15.2415C9.01295 15.1919 9.09368 15.1419 9.17415 15.0915C9.54233 14.8664 9.88156 14.7304 10.3125 14.8325C10.6829 14.9921 11.0276 15.2012 11.3696 15.4135C11.4656 15.4726 11.5617 15.5314 11.6579 15.5902C11.6944 15.6126 11.6944 15.6126 11.7318 15.6354C11.9922 15.7946 12.2558 15.9484 12.5195 16.102C12.9641 16.3611 13.405 16.626 13.8443 16.8939C14.2802 17.1597 14.7182 17.4219 15.1563 17.684C15.2013 17.5498 15.1888 17.4589 15.1573 17.322C15.1478 17.2803 15.1384 17.2386 15.1287 17.1957C15.118 17.1501 15.1074 17.1046 15.0964 17.0577C15.0854 17.0096 15.0744 16.9615 15.0631 16.912C15.033 16.7801 15.0024 16.6483 14.9718 16.5166C14.9398 16.3786 14.9082 16.2406 14.8766 16.1026C14.8166 15.841 14.7563 15.5795 14.6958 15.318C14.6204 14.992 14.5455 14.6659 14.4705 14.3398C14.4443 14.2257 14.418 14.1115 14.3918 13.9973C14.3854 13.9697 14.3791 13.942 14.3725 13.9135C14.3287 13.7228 14.2847 13.532 14.2406 13.3413C14.2288 13.2902 14.217 13.239 14.2052 13.1879C14.1834 13.0933 14.1616 12.9988 14.1397 12.9042C14.1252 12.8415 14.1252 12.8415 14.1105 12.7776C14.1021 12.7414 14.0937 12.7052 14.0851 12.6679C13.9956 12.2678 13.9752 11.9211 14.1797 11.5512C14.2821 11.4095 14.3913 11.3045 14.5288 11.1972C14.6991 11.061 14.8606 10.9192 15.0195 10.77C15.1709 10.6282 15.3238 10.4919 15.4858 10.3622C15.6567 10.2252 15.8172 10.0802 15.9766 9.93011C16.1685 9.7494 16.3653 9.57961 16.5712 9.41482C16.6963 9.31086 16.8149 9.20141 16.9336 9.09026C17.0858 8.94773 17.2396 8.81069 17.4023 8.68011C17.5914 8.5284 17.769 8.36716 17.946 8.20177C18.0597 8.09556 18.1743 7.99167 18.2935 7.89153C18.3281 7.86172 18.3627 7.83191 18.3984 7.8012C18.3984 7.78831 18.3984 7.77542 18.3984 7.76214C17.8948 7.68573 17.3884 7.64354 16.8811 7.59976C16.725 7.58626 16.569 7.57256 16.413 7.55879C15.9697 7.51969 15.5265 7.4808 15.0832 7.44246C14.8373 7.42119 14.5914 7.39964 14.3456 7.37778C14.2161 7.36627 14.0865 7.35496 13.957 7.34391C13.8126 7.33158 13.6682 7.31876 13.5238 7.30583C13.4817 7.30236 13.4396 7.29889 13.3963 7.29531C13.0286 7.2615 12.5857 7.22058 12.3328 6.92179C12.126 6.63182 12.0018 6.30391 11.8671 5.97655C11.7868 5.78134 11.7052 5.58664 11.6238 5.39184C11.6066 5.35035 11.5893 5.30887 11.5715 5.26613C11.3574 4.75293 11.1376 4.24222 10.918 3.73138C10.8419 3.55424 10.7658 3.37708 10.6897 3.19991C10.6716 3.15775 10.6535 3.11559 10.6348 3.07215C10.4345 2.60497 10.2366 2.13675 10.0391 1.66839C10.0133 1.66839 9.9875 1.66839 9.96094 1.66839Z" fill="white" fill-opacity="0.7"/>
</svg>
