<svg width="17" height="17" viewBox="0 0 17 17" fill="none" xmlns="http://www.w3.org/2000/svg">
<g opacity="0.5">
<path d="M16.4592 8.883V5.55468C16.4592 4.94455 15.8933 4.5095 15.2578 4.5095H13.9755L14.4408 3.8735L8.99539 0L8.42105 0.738738L13.088 4.03698L11.9519 5.50483H13.1537L13.5058 5.10667H14.8304C15.3451 5.10667 15.8369 5.45985 15.8369 5.95377V9.35663L15.5428 9.57684C15.4497 9.63495 15.3282 9.66945 15.2089 9.66945L15.2025 9.6707L11.504 9.66932C11.1752 9.66932 10.8605 9.92515 10.8605 10.2408V12.2601C10.8605 12.5757 11.218 12.8703 11.547 12.8703H14.9999C15.1525 12.8703 15.3132 12.7952 15.4185 12.7045L15.8372 12.3521V15.3333C16.2519 15.1482 16.4593 14.7799 16.4593 14.3555V11.8559L16.586 11.7209C16.6587 11.6262 16.6667 11.5103 16.6667 11.3837V9.3645C16.6667 9.16142 16.4592 8.98435 16.4592 8.883ZM12.5988 12.0936C12.1137 12.0936 11.7209 11.7161 11.7209 11.2507C11.7209 10.7851 12.114 10.4076 12.5988 10.4076C13.0838 10.4076 13.477 10.7851 13.477 11.2507C13.4767 11.7161 13.0836 12.0936 12.5988 12.0936Z" fill="white"/>
<path d="M10.4778 12.6855V9.82248C10.4778 9.50643 10.7772 9.28693 11.1094 9.28693H15.0877V6.99789C15.0877 6.38634 14.4789 5.89625 13.8365 5.89625H1.08283C0.839067 5.89625 0.641726 5.72934 0.641726 5.49733C0.641726 5.26531 0.839319 5.0984 1.08283 5.0984H2.93628L3.41012 4.5L1.18319 4.50013C0.540963 4.50013 0 4.93601 0 5.5473V15.5103C0 16.1216 0.540929 16.6667 1.18319 16.6667H13.8362C14.4786 16.6667 15.0874 16.1216 15.0874 15.5103V13.276H11.1091C10.7769 13.276 10.4778 13.0018 10.4778 12.6855Z" fill="white"/>
<path d="M11.6989 5.49974L12.807 4.04894L7.39282 0.166667L3.33333 5.49997H4.50548L7.59205 1.45433L11.4839 4.24125L10.5565 5.5L11.6989 5.49974Z" fill="white"/>
<path d="M5.88884 4.63958C5.68004 4.88608 5.59357 5.10773 5.61808 5.5H8.94737C8.83504 5.10773 8.59613 4.83104 8.24503 4.57679C7.45608 4.00586 6.40115 4.03491 5.88884 4.63958Z" fill="white"/>
</g>
</svg>
