<svg width="22" height="22" viewBox="0 0 22 22" fill="none" xmlns="http://www.w3.org/2000/svg">
<path d="M19.4136 11.2989V7.73416C19.4136 7.0807 18.8075 6.61475 18.1268 6.61475H16.7535L17.2518 5.93357L11.4196 1.78494L10.8045 2.57615L15.8029 6.10867L14.5861 7.68078H15.8732L16.2504 7.25433H17.669C18.2203 7.25433 18.747 7.6326 18.747 8.1616V11.8062L18.4321 12.042C18.3324 12.1043 18.2022 12.1412 18.0744 12.1412L18.0676 12.1425L14.1064 12.1411C13.7543 12.1411 13.4171 12.4151 13.4171 12.7532V14.9158C13.4171 15.2539 13.8001 15.5694 14.1525 15.5694H17.8506C18.014 15.5694 18.1862 15.489 18.299 15.3918L18.7473 15.0145V18.2074C19.1915 18.0092 19.4137 17.6147 19.4137 17.1601V14.483L19.5493 14.3384C19.6273 14.2369 19.6358 14.1128 19.6358 13.9773V11.8146C19.6358 11.5971 19.4136 11.4074 19.4136 11.2989ZM15.2789 14.7375C14.7594 14.7375 14.3386 14.3333 14.3386 13.8348C14.3386 13.3361 14.7597 12.9318 15.2789 12.9318C15.7984 12.9318 16.2195 13.3361 16.2195 13.8348C16.2192 14.3333 15.7982 14.7375 15.2789 14.7375Z" fill="url(#paint0_linear_545_56)"/>
<path d="M13.0073 15.3715V12.3051C13.0073 11.9666 13.328 11.7315 13.6837 11.7315H17.9447V9.27988C17.9447 8.6249 17.2926 8.1 16.6046 8.1H2.94501C2.68393 8.1 2.47257 7.92123 2.47257 7.67274C2.47257 7.42425 2.6842 7.24548 2.94501 7.24548H4.93011L5.43761 6.60457L3.0525 6.60471C2.36465 6.60471 1.78526 7.07155 1.78526 7.72626V18.3969C1.78526 19.0517 2.36461 19.6354 3.0525 19.6354H16.6042C17.2922 19.6354 17.9443 19.0517 17.9443 18.3969V16.0039H13.6834C13.3276 16.0039 13.0073 15.7103 13.0073 15.3715Z" fill="url(#paint1_linear_545_56)"/>
<path d="M14.3152 7.67533L15.502 6.12147L9.7032 1.96344L5.35536 7.67557H6.61077L9.91658 3.34257L14.0848 6.32745L13.0916 7.6756L14.3152 7.67533Z" fill="url(#paint2_linear_545_56)"/>
<path d="M8.09238 6.75407C7.86876 7.01808 7.77614 7.25547 7.8024 7.6756H11.3682C11.2479 7.25547 10.992 6.95912 10.6159 6.68682C9.77094 6.07533 8.64108 6.10645 8.09238 6.75407Z" fill="url(#paint3_linear_545_56)"/>
<defs>
<linearGradient id="paint0_linear_545_56" x1="3.50337" y1="8.68938" x2="18.221" y2="8.83504" gradientUnits="userSpaceOnUse">
<stop stop-color="#436EDD"/>
<stop offset="0.53125" stop-color="#AF7CE3"/>
<stop offset="1" stop-color="#AF69C7"/>
</linearGradient>
<linearGradient id="paint1_linear_545_56" x1="3.50337" y1="8.68938" x2="18.221" y2="8.83504" gradientUnits="userSpaceOnUse">
<stop stop-color="#436EDD"/>
<stop offset="0.53125" stop-color="#AF7CE3"/>
<stop offset="1" stop-color="#AF69C7"/>
</linearGradient>
<linearGradient id="paint2_linear_545_56" x1="3.50337" y1="8.68938" x2="18.221" y2="8.83504" gradientUnits="userSpaceOnUse">
<stop stop-color="#436EDD"/>
<stop offset="0.53125" stop-color="#AF7CE3"/>
<stop offset="1" stop-color="#AF69C7"/>
</linearGradient>
<linearGradient id="paint3_linear_545_56" x1="3.50337" y1="8.68938" x2="18.221" y2="8.83504" gradientUnits="userSpaceOnUse">
<stop stop-color="#436EDD"/>
<stop offset="0.53125" stop-color="#AF7CE3"/>
<stop offset="1" stop-color="#AF69C7"/>
</linearGradient>
</defs>
</svg>
